<mxfile host="app.diagrams.net" modified="2024-05-10T19:18:51.521Z" agent="Mozilla/5.0 (Windows NT 10.0; Win64; x64) AppleWebKit/537.36 (KHTML, like Gecko) Chrome/124.0.0.0 Safari/537.36" etag="qFR75S5oQgWAXIx_37wi" version="24.3.1" type="github">
  <diagram name="Page-1" id="gWfjFC37iMFcPrrwXP4c">
    <mxGraphModel dx="1259" dy="686" grid="1" gridSize="10" guides="1" tooltips="1" connect="1" arrows="1" fold="1" page="1" pageScale="1" pageWidth="850" pageHeight="1100" math="0" shadow="0">
      <root>
        <mxCell id="0" />
        <mxCell id="1" parent="0" />
        <mxCell id="qCoEIeBvlTeJh-J5-XWx-1" value="Admin" style="shape=partialRectangle;whiteSpace=wrap;html=1;left=0;right=0;fillColor=none;" vertex="1" parent="1">
          <mxGeometry x="630" y="130" width="120" height="40" as="geometry" />
        </mxCell>
        <mxCell id="qCoEIeBvlTeJh-J5-XWx-2" value="D1" style="rounded=0;whiteSpace=wrap;html=1;" vertex="1" parent="1">
          <mxGeometry x="580" y="130" width="50" height="40" as="geometry" />
        </mxCell>
        <mxCell id="qCoEIeBvlTeJh-J5-XWx-3" value="3.1" style="swimlane;whiteSpace=wrap;html=1;rounded=1;startSize=40;" vertex="1" parent="1">
          <mxGeometry x="320" y="100" width="140" height="100" as="geometry" />
        </mxCell>
        <mxCell id="qCoEIeBvlTeJh-J5-XWx-4" value="Login" style="text;html=1;align=center;verticalAlign=middle;resizable=0;points=[];autosize=1;strokeColor=none;fillColor=none;" vertex="1" parent="1">
          <mxGeometry x="365" y="148" width="50" height="30" as="geometry" />
        </mxCell>
        <mxCell id="qCoEIeBvlTeJh-J5-XWx-5" value="" style="endArrow=classic;html=1;rounded=0;entryX=0;entryY=0.25;entryDx=0;entryDy=0;" edge="1" parent="1" target="qCoEIeBvlTeJh-J5-XWx-2">
          <mxGeometry width="50" height="50" relative="1" as="geometry">
            <mxPoint x="460" y="140" as="sourcePoint" />
            <mxPoint x="510" y="90" as="targetPoint" />
          </mxGeometry>
        </mxCell>
        <mxCell id="qCoEIeBvlTeJh-J5-XWx-6" value="&lt;font style=&quot;font-size: 15px;&quot;&gt;ADMIN&lt;/font&gt;" style="rounded=0;whiteSpace=wrap;html=1;" vertex="1" parent="1">
          <mxGeometry x="90" y="130" width="110" height="40" as="geometry" />
        </mxCell>
        <mxCell id="qCoEIeBvlTeJh-J5-XWx-7" value="" style="endArrow=classic;html=1;rounded=0;entryX=0;entryY=0.25;entryDx=0;entryDy=0;" edge="1" parent="1">
          <mxGeometry width="50" height="50" relative="1" as="geometry">
            <mxPoint x="200" y="140" as="sourcePoint" />
            <mxPoint x="320" y="140" as="targetPoint" />
          </mxGeometry>
        </mxCell>
        <mxCell id="qCoEIeBvlTeJh-J5-XWx-8" value="" style="endArrow=classic;html=1;rounded=0;" edge="1" parent="1">
          <mxGeometry width="50" height="50" relative="1" as="geometry">
            <mxPoint x="580" y="160" as="sourcePoint" />
            <mxPoint x="460" y="160" as="targetPoint" />
          </mxGeometry>
        </mxCell>
        <mxCell id="qCoEIeBvlTeJh-J5-XWx-9" value="" style="endArrow=classic;html=1;rounded=0;" edge="1" parent="1">
          <mxGeometry width="50" height="50" relative="1" as="geometry">
            <mxPoint x="320" y="160" as="sourcePoint" />
            <mxPoint x="200" y="160" as="targetPoint" />
          </mxGeometry>
        </mxCell>
        <mxCell id="qCoEIeBvlTeJh-J5-XWx-10" value="Request" style="text;html=1;align=center;verticalAlign=middle;whiteSpace=wrap;rounded=0;" vertex="1" parent="1">
          <mxGeometry x="230" y="110" width="60" height="30" as="geometry" />
        </mxCell>
        <mxCell id="qCoEIeBvlTeJh-J5-XWx-11" value="Authenticate" style="text;html=1;align=center;verticalAlign=middle;whiteSpace=wrap;rounded=0;" vertex="1" parent="1">
          <mxGeometry x="480" y="110" width="80" height="30" as="geometry" />
        </mxCell>
        <mxCell id="qCoEIeBvlTeJh-J5-XWx-12" value="Response" style="text;html=1;align=center;verticalAlign=middle;whiteSpace=wrap;rounded=0;" vertex="1" parent="1">
          <mxGeometry x="230" y="160" width="70" height="30" as="geometry" />
        </mxCell>
        <mxCell id="qCoEIeBvlTeJh-J5-XWx-13" value="Reply" style="text;html=1;align=center;verticalAlign=middle;whiteSpace=wrap;rounded=0;" vertex="1" parent="1">
          <mxGeometry x="490" y="160" width="70" height="30" as="geometry" />
        </mxCell>
        <mxCell id="qCoEIeBvlTeJh-J5-XWx-14" value="Role" style="shape=partialRectangle;whiteSpace=wrap;html=1;left=0;right=0;fillColor=none;" vertex="1" parent="1">
          <mxGeometry x="630" y="260" width="120" height="40" as="geometry" />
        </mxCell>
        <mxCell id="qCoEIeBvlTeJh-J5-XWx-15" value="D1" style="rounded=0;whiteSpace=wrap;html=1;" vertex="1" parent="1">
          <mxGeometry x="580" y="260" width="50" height="40" as="geometry" />
        </mxCell>
        <mxCell id="qCoEIeBvlTeJh-J5-XWx-16" value="3.2" style="swimlane;whiteSpace=wrap;html=1;rounded=1;startSize=40;" vertex="1" parent="1">
          <mxGeometry x="320" y="230" width="140" height="100" as="geometry" />
        </mxCell>
        <mxCell id="qCoEIeBvlTeJh-J5-XWx-17" value="Update" style="text;html=1;align=center;verticalAlign=middle;resizable=0;points=[];autosize=1;strokeColor=none;fillColor=none;" vertex="1" parent="1">
          <mxGeometry x="360" y="278" width="60" height="30" as="geometry" />
        </mxCell>
        <mxCell id="qCoEIeBvlTeJh-J5-XWx-18" value="" style="endArrow=classic;html=1;rounded=0;entryX=0;entryY=0.25;entryDx=0;entryDy=0;" edge="1" parent="1" target="qCoEIeBvlTeJh-J5-XWx-15">
          <mxGeometry width="50" height="50" relative="1" as="geometry">
            <mxPoint x="460" y="270" as="sourcePoint" />
            <mxPoint x="510" y="220" as="targetPoint" />
          </mxGeometry>
        </mxCell>
        <mxCell id="qCoEIeBvlTeJh-J5-XWx-19" value="" style="endArrow=classic;html=1;rounded=0;" edge="1" parent="1">
          <mxGeometry width="50" height="50" relative="1" as="geometry">
            <mxPoint x="580" y="290" as="sourcePoint" />
            <mxPoint x="460" y="290" as="targetPoint" />
          </mxGeometry>
        </mxCell>
        <mxCell id="qCoEIeBvlTeJh-J5-XWx-20" value="Request" style="text;html=1;align=center;verticalAlign=middle;whiteSpace=wrap;rounded=0;" vertex="1" parent="1">
          <mxGeometry x="480" y="240" width="80" height="30" as="geometry" />
        </mxCell>
        <mxCell id="qCoEIeBvlTeJh-J5-XWx-21" value="Reply" style="text;html=1;align=center;verticalAlign=middle;whiteSpace=wrap;rounded=0;" vertex="1" parent="1">
          <mxGeometry x="490" y="290" width="70" height="30" as="geometry" />
        </mxCell>
        <mxCell id="qCoEIeBvlTeJh-J5-XWx-22" value="Role" style="shape=partialRectangle;whiteSpace=wrap;html=1;left=0;right=0;fillColor=none;" vertex="1" parent="1">
          <mxGeometry x="630" y="390" width="120" height="40" as="geometry" />
        </mxCell>
        <mxCell id="qCoEIeBvlTeJh-J5-XWx-23" value="D1" style="rounded=0;whiteSpace=wrap;html=1;" vertex="1" parent="1">
          <mxGeometry x="580" y="390" width="50" height="40" as="geometry" />
        </mxCell>
        <mxCell id="qCoEIeBvlTeJh-J5-XWx-24" value="3.3" style="swimlane;whiteSpace=wrap;html=1;rounded=1;startSize=40;" vertex="1" parent="1">
          <mxGeometry x="320" y="360" width="140" height="100" as="geometry" />
        </mxCell>
        <mxCell id="qCoEIeBvlTeJh-J5-XWx-25" value="Manage&amp;nbsp;&lt;div&gt;(add / edit / delete)&lt;/div&gt;" style="text;html=1;align=center;verticalAlign=middle;resizable=0;points=[];autosize=1;strokeColor=none;fillColor=none;" vertex="1" parent="1">
          <mxGeometry x="330" y="403" width="120" height="40" as="geometry" />
        </mxCell>
        <mxCell id="qCoEIeBvlTeJh-J5-XWx-26" value="" style="endArrow=classic;html=1;rounded=0;entryX=0;entryY=0.25;entryDx=0;entryDy=0;" edge="1" parent="1" target="qCoEIeBvlTeJh-J5-XWx-23">
          <mxGeometry width="50" height="50" relative="1" as="geometry">
            <mxPoint x="460" y="400" as="sourcePoint" />
            <mxPoint x="510" y="350" as="targetPoint" />
          </mxGeometry>
        </mxCell>
        <mxCell id="qCoEIeBvlTeJh-J5-XWx-27" value="" style="endArrow=classic;html=1;rounded=0;" edge="1" parent="1">
          <mxGeometry width="50" height="50" relative="1" as="geometry">
            <mxPoint x="580" y="420" as="sourcePoint" />
            <mxPoint x="460" y="420" as="targetPoint" />
          </mxGeometry>
        </mxCell>
        <mxCell id="qCoEIeBvlTeJh-J5-XWx-28" value="Request" style="text;html=1;align=center;verticalAlign=middle;whiteSpace=wrap;rounded=0;" vertex="1" parent="1">
          <mxGeometry x="480" y="370" width="80" height="30" as="geometry" />
        </mxCell>
        <mxCell id="qCoEIeBvlTeJh-J5-XWx-29" value="Reply" style="text;html=1;align=center;verticalAlign=middle;whiteSpace=wrap;rounded=0;" vertex="1" parent="1">
          <mxGeometry x="490" y="420" width="70" height="30" as="geometry" />
        </mxCell>
        <mxCell id="qCoEIeBvlTeJh-J5-XWx-54" value="" style="edgeStyle=segmentEdgeStyle;endArrow=classic;html=1;curved=0;rounded=0;endSize=8;startSize=8;entryX=0.8;entryY=1;entryDx=0;entryDy=0;entryPerimeter=0;" edge="1" parent="1">
          <mxGeometry width="50" height="50" relative="1" as="geometry">
            <mxPoint x="320" y="290" as="sourcePoint" />
            <mxPoint x="168" y="170" as="targetPoint" />
          </mxGeometry>
        </mxCell>
        <mxCell id="qCoEIeBvlTeJh-J5-XWx-55" value="" style="endArrow=classic;html=1;rounded=0;" edge="1" parent="1">
          <mxGeometry width="50" height="50" relative="1" as="geometry">
            <mxPoint x="190" y="270" as="sourcePoint" />
            <mxPoint x="320" y="270" as="targetPoint" />
          </mxGeometry>
        </mxCell>
        <mxCell id="qCoEIeBvlTeJh-J5-XWx-56" value="" style="endArrow=none;html=1;rounded=0;" edge="1" parent="1">
          <mxGeometry width="50" height="50" relative="1" as="geometry">
            <mxPoint x="190" y="270" as="sourcePoint" />
            <mxPoint x="190" y="169" as="targetPoint" />
          </mxGeometry>
        </mxCell>
        <mxCell id="qCoEIeBvlTeJh-J5-XWx-57" value="Request" style="text;html=1;align=center;verticalAlign=middle;whiteSpace=wrap;rounded=0;" vertex="1" parent="1">
          <mxGeometry x="190" y="240" width="120" height="30" as="geometry" />
        </mxCell>
        <mxCell id="qCoEIeBvlTeJh-J5-XWx-58" value="Response" style="text;html=1;align=center;verticalAlign=middle;whiteSpace=wrap;rounded=0;" vertex="1" parent="1">
          <mxGeometry x="210" y="290" width="70" height="30" as="geometry" />
        </mxCell>
        <mxCell id="qCoEIeBvlTeJh-J5-XWx-59" value="" style="edgeStyle=segmentEdgeStyle;endArrow=classic;html=1;curved=0;rounded=0;endSize=8;startSize=8;entryX=0.8;entryY=1;entryDx=0;entryDy=0;entryPerimeter=0;" edge="1" parent="1">
          <mxGeometry width="50" height="50" relative="1" as="geometry">
            <mxPoint x="320" y="420" as="sourcePoint" />
            <mxPoint x="120" y="167.97" as="targetPoint" />
          </mxGeometry>
        </mxCell>
        <mxCell id="qCoEIeBvlTeJh-J5-XWx-60" value="" style="endArrow=classic;html=1;rounded=0;" edge="1" parent="1">
          <mxGeometry width="50" height="50" relative="1" as="geometry">
            <mxPoint x="140" y="400" as="sourcePoint" />
            <mxPoint x="320" y="400" as="targetPoint" />
          </mxGeometry>
        </mxCell>
        <mxCell id="qCoEIeBvlTeJh-J5-XWx-61" value="" style="endArrow=none;html=1;rounded=0;" edge="1" parent="1">
          <mxGeometry width="50" height="50" relative="1" as="geometry">
            <mxPoint x="140" y="400" as="sourcePoint" />
            <mxPoint x="140" y="170" as="targetPoint" />
          </mxGeometry>
        </mxCell>
        <mxCell id="qCoEIeBvlTeJh-J5-XWx-62" value="Resquest" style="text;html=1;align=center;verticalAlign=middle;whiteSpace=wrap;rounded=0;" vertex="1" parent="1">
          <mxGeometry x="190" y="370" width="120" height="30" as="geometry" />
        </mxCell>
        <mxCell id="qCoEIeBvlTeJh-J5-XWx-63" value="Response" style="text;html=1;align=center;verticalAlign=middle;whiteSpace=wrap;rounded=0;" vertex="1" parent="1">
          <mxGeometry x="210" y="420" width="70" height="30" as="geometry" />
        </mxCell>
        <mxCell id="qCoEIeBvlTeJh-J5-XWx-80" value="&lt;font style=&quot;font-size: 16px;&quot;&gt;&lt;b&gt;(2&lt;sup&gt;nd&lt;/sup&gt; Level DFD - 3.0)&lt;/b&gt;&lt;/font&gt;" style="text;html=1;align=center;verticalAlign=middle;whiteSpace=wrap;rounded=0;" vertex="1" parent="1">
          <mxGeometry x="260" y="10" width="230" height="30" as="geometry" />
        </mxCell>
      </root>
    </mxGraphModel>
  </diagram>
</mxfile>
